<svg width="896" height="357" viewBox="0 0 896 357" fill="none" xmlns="http://www.w3.org/2000/svg">
    <path
        d="M-0.000118613 288.48V235.68L156.96 11.04H235.2V229.92H277.44V288.48H235.2V356.64H168V288.48H-0.000118613ZM172.32 83.04L73.9199 229.92H172.32V83.04ZM315.424 177.12C315.424 121.76 325.344 78.4 345.184 47.04C365.344 15.68 398.624 0 445.024 0C491.424 0 524.544 15.68 544.384 47.04C564.544 78.4 574.624 121.76 574.624 177.12C574.624 232.8 564.544 276.48 544.384 308.16C524.544 339.84 491.424 355.68 445.024 355.68C398.624 355.68 365.344 339.84 345.184 308.16C325.344 276.48 315.424 232.8 315.424 177.12ZM508.384 177.12C508.384 153.44 506.784 133.6 503.584 117.6C500.704 101.28 494.624 88 485.344 77.76C476.384 67.52 462.944 62.4 445.024 62.4C427.104 62.4 413.504 67.52 404.224 77.76C395.264 88 389.184 101.28 385.984 117.6C383.104 133.6 381.664 153.44 381.664 177.12C381.664 201.44 383.104 221.92 385.984 238.56C388.864 254.88 394.944 268.16 404.224 278.4C413.504 288.32 427.104 293.28 445.024 293.28C462.944 293.28 476.544 288.32 485.824 278.4C495.104 268.16 501.184 254.88 504.064 238.56C506.944 221.92 508.384 201.44 508.384 177.12ZM618.056 288.48V235.68L775.016 11.04H853.256V229.92H895.496V288.48H853.256V356.64H786.056V288.48H618.056ZM790.376 83.04L691.976 229.92H790.376V83.04Z"
        fill="url(#paint0_linear_63_643)" />
    <defs>
        <linearGradient id="paint0_linear_63_643" x1="445.14" y1="-51.36" x2="445.14" y2="428.64"
            gradientUnits="userSpaceOnUse">
            <stop stop-color="currentColor" />
            <stop offset="0.25" stop-color="currentColor" stop-opacity="0.96" />
            <stop offset="0.505" stop-color="currentColor" stop-opacity="0.81" />
            <stop offset="0.68" stop-color="currentColor" stop-opacity="0.61" />
            <stop offset="1" stop-color="white" stop-opacity="0" />
        </linearGradient>
    </defs>
</svg>